<svg width="30" height="44" viewBox="0 0 30 44" fill="none" xmlns="http://www.w3.org/2000/svg">
<path d="M3 44C2.175 44 1.46883 43.7062 0.8815 43.1185C0.293834 42.5312 0 41.825 0 41V3C0 2.2 0.3 1.5 0.9 0.9C1.5 0.3 2.2 0 3 0H24.9C25.725 0 26.4313 0.293666 27.019 0.881C27.6063 1.46867 27.9 2.175 27.9 3V10.5C28.5 10.6 29 10.8825 29.4 11.3475C29.8 11.8128 30 12.34 30 12.929V16.65C30 17.2833 29.8 17.8333 29.4 18.3C29 18.7667 28.5 19.05 27.9 19.15V41C27.9 41.825 27.6063 42.5312 27.019 43.1185C26.4313 43.7062 25.725 44 24.9 44H3ZM3 41H24.9V3H3V41ZM13.95 10C14.35 10 14.7 9.85 15 9.55C15.3 9.25 15.45 8.9 15.45 8.5C15.45 8.1 15.3 7.75 15 7.45C14.7 7.15 14.35 7 13.95 7C13.55 7 13.2 7.15 12.9 7.45C12.6 7.75 12.45 8.1 12.45 8.5C12.45 8.9 12.6 9.25 12.9 9.55C13.2 9.85 13.55 10 13.95 10Z" fill="url(#paint0_linear_829_1346)"/>
<defs>
<linearGradient id="paint0_linear_829_1346" x1="0" y1="0" x2="38.3331" y2="29.0403" gradientUnits="userSpaceOnUse">
<stop stop-color="#7E67C1"/>
<stop offset="1" stop-color="#FFB051"/>
</linearGradient>
</defs>
</svg>
