<svg width="48" height="48" viewBox="0 0 48 48" fill="none" xmlns="http://www.w3.org/2000/svg">
<path d="M13 42V38.35L15.35 36H7C6.2 36 5.5 35.7 4.9 35.1C4.3 34.5 4 33.8 4 33V9C4 8.2 4.3 7.5 4.9 6.9C5.5 6.3 6.2 6 7 6H41C41.8 6 42.5 6.3 43.1 6.9C43.7 7.5 44 8.2 44 9V33C44 33.8 43.7 34.5 43.1 35.1C42.5 35.7 41.8 36 41 36H32.6L35 38.35V42H13ZM7 33H41V9H7V33Z" fill="url(#paint0_linear_829_1323)"/>
<defs>
<linearGradient id="paint0_linear_829_1323" x1="4" y1="6" x2="35.8698" y2="45.3455" gradientUnits="userSpaceOnUse">
<stop stop-color="#7E67C1"/>
<stop offset="1" stop-color="#FFB051"/>
</linearGradient>
</defs>
</svg>
