<svg width="36" height="32" viewBox="0 0 36 32" fill="none" xmlns="http://www.w3.org/2000/svg">
<path d="M9.8502 32C9.58353 32 9.33353 31.9333 9.1002 31.8C8.86686 31.6667 8.68353 31.4833 8.5502 31.25L4.3502 23.75H7.9002L10.0002 27.75H14.5002V26.25H10.9002L8.8002 22.25H3.5502L0.400195 16.75C0.333529 16.6167 0.283529 16.4917 0.250195 16.375C0.216862 16.2583 0.200195 16.1333 0.200195 16C0.200195 15.9333 0.266862 15.6833 0.400195 15.25L3.5502 9.75H8.8002L10.9002 5.75H14.5002V4.25H10.0002L7.9002 8.25H4.3502L8.5502 0.75C8.68353 0.516667 8.86686 0.333333 9.1002 0.2C9.33353 0.0666667 9.58353 0 9.8502 0H15.7502C16.1835 0 16.5419 0.141667 16.8252 0.425C17.1085 0.708333 17.2502 1.06667 17.2502 1.5V10.25H13.0002L11.5002 11.75H17.2502V18.25H12.3502L10.4002 14.25H5.5002L4.0002 15.75H9.4002L11.4002 19.75H17.2502V30.5C17.2502 30.9333 17.1085 31.2917 16.8252 31.575C16.5419 31.8583 16.1835 32 15.7502 32H9.8502ZM20.2502 32C19.8169 32 19.4585 31.8583 19.1752 31.575C18.8919 31.2917 18.7502 30.9333 18.7502 30.5V19.75H24.6002L26.6002 15.75H32.0002L30.5002 14.25H25.6002L23.6502 18.25H18.7502V11.75H24.5002L23.0002 10.25H18.7502V1.5C18.7502 1.06667 18.8919 0.708333 19.1752 0.425C19.4585 0.141667 19.8169 0 20.2502 0H26.1502C26.4169 0 26.6669 0.0666667 26.9002 0.2C27.1335 0.333333 27.3169 0.516667 27.4502 0.75L31.6502 8.25H28.1002L26.0002 4.25H21.5002V5.75H25.1002L27.2002 9.75H32.4502L35.6002 15.25C35.6669 15.3833 35.7169 15.5083 35.7502 15.625C35.7835 15.7417 35.8002 15.8667 35.8002 16C35.8002 16.0667 35.7335 16.3167 35.6002 16.75L32.4502 22.25H27.2002L25.1002 26.25H21.5002V27.75H26.0002L28.1002 23.75H31.6502L27.4502 31.25C27.3169 31.4833 27.1335 31.6667 26.9002 31.8C26.6669 31.9333 26.4169 32 26.1502 32H20.2502Z" fill="url(#paint0_linear_829_1301)"/>
<defs>
<linearGradient id="paint0_linear_829_1301" x1="0.200195" y1="0" x2="28.5216" y2="35.0083" gradientUnits="userSpaceOnUse">
<stop stop-color="#7E67C1"/>
<stop offset="1" stop-color="#FFB051"/>
</linearGradient>
</defs>
</svg>
