<svg width="48" height="48" viewBox="0 0 48 48" fill="none" xmlns="http://www.w3.org/2000/svg">
<path d="M14.8 36C12.6667 36 10.8583 35.2417 9.375 33.725C7.89167 32.2083 7.15 30.3667 7.15 28.2V19.65C7.15 18.003 7.65 16.558 8.65 15.315C9.65 14.0717 10.95 13.3 12.55 13C14.45 12.6333 16.3498 12.375 18.2495 12.225C20.1492 12.075 22.0658 12 23.9995 12C25.9335 12 27.8588 12.075 29.7755 12.225C31.6922 12.375 33.6003 12.6333 35.5 13C37.1 13.3 38.4 14.075 39.4 15.325C40.4 16.575 40.9 18.0167 40.9 19.65V28.2C40.9 30.3667 40.1583 32.2083 38.675 33.725C37.1917 35.2417 35.3833 36 33.25 36H31.15C30.739 36 30.3278 35.9667 29.9165 35.9C29.5055 35.8333 29.1167 35.7333 28.75 35.6L25.5 34.5C25.028 34.3333 24.5363 34.25 24.025 34.25C23.5137 34.25 23.022 34.3333 22.55 34.5L19.3 35.6C18.9 35.7333 18.5 35.8333 18.1 35.9C17.7 35.9667 17.2792 36 16.8375 36H14.8ZM14.8 33H16.85C17.1067 33 17.3542 32.975 17.5925 32.925C17.8308 32.875 18.0833 32.8167 18.35 32.75C19.3167 32.4397 20.2583 32.112 21.175 31.767C22.0917 31.4223 23.0457 31.25 24.037 31.25C25.0283 31.25 25.9867 31.425 26.912 31.775C27.8373 32.125 28.7667 32.45 29.7 32.75C29.9333 32.8167 30.1692 32.875 30.4075 32.925C30.6458 32.975 30.8933 33 31.15 33H33.25C34.55 33 35.65 32.525 36.55 31.575C37.45 30.625 37.9 29.5 37.9 28.2V19.65C37.9 18.75 37.625 17.95 37.075 17.25C36.525 16.55 35.8167 16.1167 34.95 15.95C33.15 15.5833 31.3333 15.3333 29.5 15.2C27.6667 15.0667 25.8333 15 24 15C22.1667 15 20.3417 15.0667 18.525 15.2C16.7083 15.3333 14.9 15.5833 13.1 15.95C12.2333 16.1167 11.525 16.55 10.975 17.25C10.425 17.95 10.15 18.75 10.15 19.65V28.2C10.15 29.5 10.6 30.625 11.5 31.575C12.4 32.525 13.5 33 14.8 33ZM2 28.2V19.65H4V28.2H2ZM44 28.2V19.65H46V28.2H44Z" fill="url(#paint0_linear_829_1278)"/>
<defs>
<linearGradient id="paint0_linear_829_1278" x1="2" y1="12" x2="19.1839" y2="47.0043" gradientUnits="userSpaceOnUse">
<stop stop-color="#7E67C1"/>
<stop offset="1" stop-color="#FFB051"/>
</linearGradient>
</defs>
</svg>
