<svg width="48" height="48" viewBox="0 0 48 48" fill="none" xmlns="http://www.w3.org/2000/svg">
<path d="M5.6998 20.75L1.7998 16.8C4.83314 13.9667 8.2498 11.8 12.0498 10.3C15.8498 8.80005 19.8331 8.05005 23.9998 8.05005C28.1665 8.05005 32.1498 8.80005 35.9498 10.3C39.7498 11.8 43.1665 13.9667 46.1998 16.8L42.2998 20.75C39.7998 18.45 36.9778 16.6834 33.8338 15.45C30.6898 14.2167 27.4148 13.6 24.0088 13.6C20.6028 13.6 17.3248 14.2167 14.1748 15.45C11.0248 16.6834 8.1998 18.45 5.6998 20.75ZM14.1998 29.35L10.6498 25.75C12.5165 24.1167 14.5885 22.8667 16.8658 22C19.1431 21.1334 21.5211 20.7 23.9998 20.7C26.4785 20.7 28.8565 21.1334 31.1338 22C33.4111 22.8667 35.4831 24.1167 37.3498 25.75L33.7998 29.35C32.3998 28.1834 30.8665 27.3 29.1998 26.7C27.5331 26.1 25.7998 25.8 23.9998 25.8C22.1998 25.8 20.4665 26.1 18.7998 26.7C17.1331 27.3 15.5998 28.1834 14.1998 29.35ZM23.9953 39.95C23.0316 39.95 22.2081 39.6069 21.5248 38.9206C20.8415 38.2342 20.4998 37.4092 20.4998 36.4456C20.4998 35.4819 20.843 34.6584 21.5293 33.975C22.2156 33.2917 23.0406 32.95 24.0043 32.95C24.968 32.95 25.7915 33.2932 26.4748 33.9795C27.1581 34.6659 27.4998 35.4909 27.4998 36.4545C27.4998 37.4182 27.1566 38.2417 26.4703 38.925C25.784 39.6084 24.959 39.95 23.9953 39.95Z" fill="url(#paint0_linear_829_1388)"/>
<defs>
<linearGradient id="paint0_linear_829_1388" x1="1.7998" y1="8.05005" x2="28.1271" y2="48.7652" gradientUnits="userSpaceOnUse">
<stop stop-color="#7E67C1"/>
<stop offset="1" stop-color="#FFB051"/>
</linearGradient>
</defs>
</svg>
