<svg width="48" height="48" viewBox="0 0 48 48" fill="none" xmlns="http://www.w3.org/2000/svg">
<path d="M9.4501 40C7.4501 40 5.74176 39.2833 4.3251 37.85C2.90843 36.4167 2.16676 34.6833 2.1001 32.65C2.1001 32.35 2.11676 32.05 2.1501 31.75C2.18343 31.45 2.23343 31.15 2.3001 30.85L6.5001 14.05C6.96676 12.25 7.91676 10.7917 9.3501 9.675C10.7834 8.55833 12.4168 8 14.2501 8H33.7501C35.5834 8 37.2168 8.55833 38.6501 9.675C40.0834 10.7917 41.0334 12.25 41.5001 14.05L45.7001 30.85C45.7668 31.15 45.8251 31.4583 45.8751 31.775C45.9251 32.0917 45.9501 32.4 45.9501 32.7C45.9501 34.7333 45.2251 36.4583 43.7751 37.875C42.3251 39.2917 40.5834 40 38.5501 40C37.1501 40 35.8501 39.6333 34.6501 38.9C33.4501 38.1667 32.5501 37.1667 31.9501 35.9L30.5501 33C30.3834 32.6667 30.1334 32.4167 29.8001 32.25C29.4668 32.0833 29.1168 32 28.7501 32H19.2501C18.8834 32 18.5334 32.0833 18.2001 32.25C17.8668 32.4167 17.6168 32.6667 17.4501 33L16.0501 35.9C15.4501 37.1667 14.5501 38.1667 13.3501 38.9C12.1501 39.6333 10.8501 40 9.4501 40ZM9.5831 37C10.3944 37 11.1446 36.7838 11.8336 36.3515C12.5223 35.9188 13.0444 35.335 13.4001 34.6L14.8001 31.75C15.2334 30.8833 15.8418 30.2083 16.6251 29.725C17.4084 29.2417 18.2834 29 19.2501 29H28.7501C29.7168 29 30.5918 29.25 31.3751 29.75C32.1584 30.25 32.7834 30.9167 33.2501 31.75L34.6501 34.6C35.0058 35.335 35.5279 35.9188 36.2166 36.3515C36.9056 36.7838 37.6544 37 38.4631 37C39.6544 37 40.6834 36.5917 41.5501 35.775C42.4168 34.9583 42.8668 33.95 42.9001 32.75C42.9001 32.6167 42.8501 32.2167 42.7501 31.55L38.5501 14.8C38.2834 13.7 37.7101 12.7917 36.8301 12.075C35.9501 11.3583 34.9234 11 33.7501 11H14.2501C13.0934 11 12.0709 11.35 11.1826 12.05C10.2943 12.75 9.71676 13.6667 9.4501 14.8L5.2501 31.55C5.21676 31.6833 5.16676 32.0667 5.1001 32.7C5.1001 33.916 5.53776 34.9367 6.4131 35.762C7.28843 36.5873 8.3451 37 9.5831 37ZM27.0091 21.5C27.4364 21.5 27.7918 21.3553 28.0751 21.066C28.3584 20.777 28.5001 20.4187 28.5001 19.991C28.5001 19.5637 28.3554 19.2083 28.0661 18.925C27.7771 18.6417 27.4188 18.5 26.9911 18.5C26.5638 18.5 26.2084 18.6447 25.9251 18.934C25.6418 19.223 25.5001 19.5813 25.5001 20.009C25.5001 20.4363 25.6448 20.7917 25.9341 21.075C26.2231 21.3583 26.5814 21.5 27.0091 21.5ZM31.0091 17.5C31.4364 17.5 31.7918 17.3553 32.0751 17.066C32.3584 16.777 32.5001 16.4187 32.5001 15.991C32.5001 15.5637 32.3554 15.2083 32.0661 14.925C31.7771 14.6417 31.4188 14.5 30.9911 14.5C30.5638 14.5 30.2084 14.6447 29.9251 14.934C29.6418 15.223 29.5001 15.5813 29.5001 16.009C29.5001 16.4363 29.6448 16.7917 29.9341 17.075C30.2231 17.3583 30.5814 17.5 31.0091 17.5ZM31.0091 25.5C31.4364 25.5 31.7918 25.3553 32.0751 25.066C32.3584 24.777 32.5001 24.4187 32.5001 23.991C32.5001 23.5637 32.3554 23.2083 32.0661 22.925C31.7771 22.6417 31.4188 22.5 30.9911 22.5C30.5638 22.5 30.2084 22.6447 29.9251 22.934C29.6418 23.223 29.5001 23.5813 29.5001 24.009C29.5001 24.4363 29.6448 24.7917 29.9341 25.075C30.2231 25.3583 30.5814 25.5 31.0091 25.5ZM35.0091 21.5C35.4364 21.5 35.7918 21.3553 36.0751 21.066C36.3584 20.777 36.5001 20.4187 36.5001 19.991C36.5001 19.5637 36.3554 19.2083 36.0661 18.925C35.7771 18.6417 35.4188 18.5 34.9911 18.5C34.5638 18.5 34.2084 18.6447 33.9251 18.934C33.6418 19.223 33.5001 19.5813 33.5001 20.009C33.5001 20.4363 33.6448 20.7917 33.9341 21.075C34.2231 21.3583 34.5814 21.5 35.0091 21.5ZM17.0061 24.75C17.3688 24.75 17.6668 24.632 17.9001 24.396C18.1334 24.1597 18.2501 23.861 18.2501 23.5V21.25H20.5001C20.8611 21.25 21.1598 21.1313 21.3961 20.894C21.6321 20.657 21.7501 20.357 21.7501 19.994C21.7501 19.6313 21.6321 19.3333 21.3961 19.1C21.1598 18.8667 20.8611 18.75 20.5001 18.75H18.2501V16.5C18.2501 16.139 18.1314 15.8403 17.8941 15.604C17.6571 15.368 17.3571 15.25 16.9941 15.25C16.6314 15.25 16.3334 15.368 16.1001 15.604C15.8668 15.8403 15.7501 16.139 15.7501 16.5V18.75H13.5001C13.1391 18.75 12.8404 18.8687 12.6041 19.106C12.3681 19.343 12.2501 19.643 12.2501 20.006C12.2501 20.3687 12.3681 20.6667 12.6041 20.9C12.8404 21.1333 13.1391 21.25 13.5001 21.25H15.7501V23.5C15.7501 23.861 15.8688 24.1597 16.1061 24.396C16.3431 24.632 16.6431 24.75 17.0061 24.75Z" fill="url(#paint0_linear_829_1256)"/>
<defs>
<linearGradient id="paint0_linear_829_1256" x1="2.1001" y1="8" x2="28.6768" y2="48.4648" gradientUnits="userSpaceOnUse">
<stop stop-color="#7E67C1"/>
<stop offset="1" stop-color="#FFB051"/>
</linearGradient>
</defs>
</svg>
